HIERARCHY
ROOT Hips
{
	OFFSET	0.00	0.00	0.00
	CHANNELS 6 Xposition Yposition Zposition Zrotation Xrotation Yrotation
	JOINT LeftUpLeg
	{
		OFFSET	 0.126116	-0.014019	-0.065224
		CHANNELS 3 Zrotation Xrotation Yrotation
		JOINT LeftLeg
		{
			OFFSET	 0.000000	 0.000000	 0.569914
			CHANNELS 3 Zrotation Xrotation Yrotation
			JOINT LeftFoot
			{
				OFFSET	 0.000000	 0.000000	 0.544423
				CHANNELS 3 Zrotation Xrotation Yrotation
				JOINT LeftToeBase
				{
					OFFSET	 0.000000	 0.000000	 0.207117
					CHANNELS 3 Zrotation Xrotation Yrotation
					End Site
					{
						OFFSET	 0.000000	 0.000000	 0.207117
					}
				}
			}
		}
	}
	JOINT RightUpLeg
	{
		OFFSET	-0.124023	-0.008373	-0.065224
		CHANNELS 3 Zrotation Xrotation Yrotation
		JOINT RightLeg
		{
			OFFSET	 0.000000	 0.000000	 0.570047
			CHANNELS 3 Zrotation Xrotation Yrotation
			JOINT RightFoot
			{
				OFFSET	 0.000000	 0.000000	 0.544354
				CHANNELS 3 Zrotation Xrotation Yrotation
				JOINT RightToeBase
				{
					OFFSET	 0.000000	 0.000000	 0.207540
					CHANNELS 3 Zrotation Xrotation Yrotation
					End Site
					{
						OFFSET	 0.000000	 0.000000	 0.207540
					}
				}
			}
		}
	}
	JOINT Spine
	{
		OFFSET	 0.000184	-0.007763	 0.117403
		CHANNELS 3 Zrotation Xrotation Yrotation
		JOINT Spine1
		{
			OFFSET	 0.000000	 0.000000	 0.137269
			CHANNELS 3 Zrotation Xrotation Yrotation
			JOINT Spine2
			{
				OFFSET	 0.000000	 0.000000	 0.156879
				CHANNELS 3 Zrotation Xrotation Yrotation
				JOINT LeftShoulder
				{
					OFFSET	 0.080501	-0.002496	 0.160144
					CHANNELS 3 Zrotation Xrotation Yrotation
					JOINT LeftArm
					{
						OFFSET	 0.000000	 0.000000	 0.164363
						CHANNELS 3 Zrotation Xrotation Yrotation
						JOINT LeftForeArm
						{
							OFFSET	 0.000000	 0.000000	 0.364576
							CHANNELS 3 Zrotation Xrotation Yrotation
							JOINT LeftHand
							{
								OFFSET	 0.000000	 0.000000	 0.360812
								CHANNELS 3 Zrotation Xrotation Yrotation
								JOINT LeftHandIndex1
								{
									OFFSET	 0.000000	 0.000000	 0.086006
									CHANNELS 3 Zrotation Xrotation Yrotation
									JOINT LeftHandIndex2
									{
										OFFSET	 0.000000	 0.000000	 0.047236
										CHANNELS 3 Zrotation Xrotation Yrotation
										JOINT LeftHandIndex3
										{
											OFFSET	-0.004284	-0.000551	 0.038166
											CHANNELS 3 Zrotation Xrotation Yrotation
											End Site
											{
												OFFSET	-0.004284	-0.000551	 0.038166
											}
										}
									}
								}
							}
						}
					}
				}
				JOINT Neck
				{
					OFFSET	 0.000000	 0.000000	 0.176489
					CHANNELS 3 Zrotation Xrotation Yrotation
					JOINT Head
					{
						OFFSET	 0.000000	-0.001747	 0.077940
						CHANNELS 3 Zrotation Xrotation Yrotation
						End Site
						{
							OFFSET	 0.000000	-0.001747	 0.077940
						}
					}
				}
				JOINT RightShoulder
				{
					OFFSET	-0.080363	 0.000306	 0.159706
					CHANNELS 3 Zrotation Xrotation Yrotation
					JOINT RightArm
					{
						OFFSET	 0.000000	 0.000000	 0.164196
						CHANNELS 3 Zrotation Xrotation Yrotation
						JOINT RightForeArm
						{
							OFFSET	 0.000000	 0.000000	 0.365611
							CHANNELS 3 Zrotation Xrotation Yrotation
							JOINT RightHand
							{
								OFFSET	 0.000000	 0.000000	 0.360648
								CHANNELS 3 Zrotation Xrotation Yrotation
								JOINT RightHandIndex1
								{
									OFFSET	 0.000000	 0.000000	 0.069977
									CHANNELS 3 Zrotation Xrotation Yrotation
									JOINT RightHandIndex2
									{
										OFFSET	 0.000000	 0.000000	 0.052305
										CHANNELS 3 Zrotation Xrotation Yrotation
										JOINT RightHandIndex3
										{
											OFFSET	 0.009002	-0.000782	 0.042196
											CHANNELS 3 Zrotation Xrotation Yrotation
											End Site
											{
												OFFSET	 0.009002	-0.000782	 0.042196
											}
										}
									}
								}
							}
						}
					}
				}
			}
		}
	}
}
MOTION
Frames:    12
Frame Time: 0.03333334
-0.000744	 0.049674	 1.277503	-0.014049	 3.556118	 0.554902	 7.025439	-6.985741	 177.940500	 2.153924	-12.198050	 0.543468	 0.123565	 69.722000	-0.211194	-2.385833	 28.452750	 0.000004	 0.284493	-6.367824	-178.179900	-0.784833	-10.486790	 0.795303	 4.617700	 68.700740	 1.742319	 2.384659	 28.388700	-0.000001	-11.854700	 7.462216	 1.364591	-2.698082	-5.978535	-0.303873	 8.136932	 9.925612	-0.877347	-90.951450	 68.306000	-177.358100	-7.565802	 4.273562	-29.714260	 21.160370	 0.126773	-3.337711	-13.152500	-35.605240	-8.360375	-2.027600	 6.559038	 9.033609	-5.188889	 0.308190	 3.541030	-5.234859	 0.342567	 0.430617	 4.707228	 21.870570	-7.946845	 3.525558	-16.133660	 2.279317	 88.679360	 66.377840	 176.744600	 7.067230	 9.661343	 4.916796	-20.418430	-10.430620	 42.220970	 10.246090	-34.683070	 9.170009	 1.803333	 3.979147	-15.098590	 4.898592	 3.004813	-9.310344	 5.224449	 0.395017	 2.014677
-0.001272	 0.054536	 1.277472	 0.049308	 4.328407	 0.614483	 7.006663	-8.302534	 177.948200	 2.143624	-12.605140	 0.564527	 0.506104	 69.532360	-0.657173	-2.385833	 28.452750	 0.000004	 0.058346	-7.577536	-178.278600	-0.779894	-10.717430	 0.813521	 4.205237	 68.397300	 2.194290	 2.384659	 28.388700	-0.000001	-14.491600	 7.954315	 1.453864	-2.756589	-6.752687	-0.320441	 8.167195	 11.360310	-1.054499	-90.848820	 67.600650	-177.163200	-6.568137	 5.740018	-32.304940	 18.936580	 0.357010	-4.496661	-15.027280	-39.511650	-10.996640	-2.027600	 6.559038	 9.033609	-5.188889	 0.308190	 3.541030	-5.234859	 0.342567	 0.430617	 4.752245	 24.028030	-8.567546	 3.924783	-17.780460	 2.413978	 88.481000	 65.014850	 176.426600	 5.697567	 11.059550	 6.805964	-19.182260	-9.019345	 43.202320	 11.269200	-38.089240	 10.673710	 1.803333	 3.979147	-15.098590	 4.898592	 3.004813	-9.310344	 5.224449	 0.395017	 2.014677
-0.002595	 0.067870	 1.277666	 0.230694	 6.554823	 0.754382	 6.937963	-11.961100	 178.040800	 2.147406	-13.575330	 0.602201	 1.675083	 69.020800	-1.965062	-2.385832	 28.452790	-0.000001	-0.599654	-10.898050	-178.558500	-1.313323	-11.064290	 0.735339	 3.544859	 67.559590	 3.522782	 2.384659	 28.388700	-0.000001	-19.925650	 9.003251	 1.566345	-2.753764	-7.490839	-0.124716	 7.958205	 13.663270	-1.514560	-90.855370	 65.501030	-177.493600	-4.408991	 7.744298	-37.600850	 12.379130	 1.130026	-7.014334	-22.706570	-46.367180	-19.342530	-2.027600	 6.559038	 9.033609	-5.188889	 0.308190	 3.541030	-5.234859	 0.342567	 0.430617	 4.247623	 26.584770	-8.834983	 4.481014	-19.939190	 2.349883	 88.394910	 61.819490	 176.673200	 1.717707	 12.740350	 10.448370	-15.702860	-5.262339	 46.275140	 15.018210	-44.125020	 16.086980	 1.803333	 3.979147	-15.098590	 4.898592	 3.004813	-9.310344	 5.224449	 0.395017	 2.014677
-0.003149	 0.082978	 1.277304	 0.624481	 9.209873	 0.733123	 6.551995	-16.253090	 178.368500	 2.024927	-14.664680	 0.618436	 3.146970	 68.109890	-3.541611	-2.385833	 28.452760	 0.000004	-1.293316	-15.032690	-178.745600	-1.566072	-11.875140	 0.737655	 2.692750	 66.786290	 4.775998	 2.384659	 28.388700	-0.000001	-24.339000	 9.722395	 1.579281	-2.652805	-8.164624	 0.045149	 7.604253	 15.010480	-1.681497	-91.671470	 64.758560	-179.724900	-2.645108	 10.350960	-40.011980	 7.601078	 2.072760	-9.135564	-30.676920	-49.432110	-27.687380	-2.027600	 6.559038	 9.033609	-5.188889	 0.308190	 3.541030	-5.234859	 0.342567	 0.430617	 3.606699	 26.952710	-8.736768	 4.740833	-20.716540	 2.306858	 89.153370	 60.816040	 178.544100	-2.490344	 15.561120	 12.125790	-13.116810	-1.944681	 48.804390	 19.149980	-47.746400	 21.769140	 1.803333	 3.979147	-15.098590	 4.898592	 3.004813	-9.310344	 5.224449	 0.395017	 2.014677
-0.004774	 0.101694	 1.275533	 1.127617	 12.972650	 0.657616	 5.931951	-22.303910	 178.717800	 2.214779	-16.822470	 0.762011	 4.703028	 67.764330	-5.594122	-2.385832	 28.452790	-0.000001	-1.967229	-21.109310	-179.027700	-1.700524	-14.284780	 0.851176	 1.340442	 66.845150	 6.520338	 2.384659	 28.388700	-0.000001	-28.628970	 10.409360	 1.642267	-2.496158	-7.975947	 0.142048	 7.098886	 15.290490	-1.467622	-92.849780	 65.175820	 177.123800	-1.258332	 13.265380	-41.655670	 4.437303	 3.358156	-11.334580	-36.872820	-50.464210	-34.591550	-2.027600	 6.559038	 9.033609	-5.188889	 0.308190	 3.541030	-5.234859	 0.342567	 0.430617	 2.992499	 24.990610	-8.942363	 4.760374	-20.277040	 2.044491	 90.353460	 60.303150	-178.699100	-7.194272	 19.254870	 14.734150	-10.013160	 2.333300	 51.444850	 24.752680	-49.739380	 27.991860	 1.803333	 3.979147	-15.098590	 4.898592	 3.004813	-9.310344	 5.224449	 0.395017	 2.014677
-0.008800	 0.121605	 1.274824	 2.830969	 18.634250	 0.679566	 3.643384	-29.980830	 178.349500	 3.223777	-18.316650	 1.145426	 4.834144	 66.031590	-7.066934	-2.385833	 28.452760	 0.000004	-4.016384	-28.358100	 179.997800	-1.481980	-16.044840	 1.014046	-0.967232	 65.966870	 9.019650	 2.384659	 28.388700	-0.000001	-32.376480	 10.297910	 1.397411	-2.841413	-6.312023	 0.218672	 6.250571	 13.607730	-1.681322	-93.859980	 65.579430	 174.309400	-0.021837	 14.182070	-42.894970	 1.477126	 4.820508	-13.282560	-39.848480	-48.804810	-38.080800	-2.027600	 6.559038	 9.033609	-5.188889	 0.308190	 3.541030	-5.234859	 0.342567	 0.430617	 2.493752	 24.131160	-7.911453	 4.564519	-20.732720	 1.608838	 91.571470	 60.925810	-175.842200	-12.030420	 22.918290	 18.967150	-7.682730	 6.337745	 54.713730	 28.425150	-48.523480	 32.012030	 1.803333	 3.979147	-15.098590	 4.898592	 3.004813	-9.310344	 5.224449	 0.395017	 2.014677
-0.013743	 0.142028	 1.271381	 4.096067	 22.474650	 0.453644	 1.760661	-36.105970	 177.835800	 3.767520	-20.080650	 1.438825	 5.617477	 65.832960	-8.747757	-2.385833	 28.452750	 0.000004	-5.576753	-34.777570	 179.097900	-1.884790	-19.096450	 1.068058	-2.314661	 66.420610	 11.100780	 2.384659	 28.388700	-0.000001	-34.605080	 10.604310	 1.177012	-2.906104	-2.569553	 0.730573	 5.602790	 11.723920	-2.239620	-94.455340	 67.087770	 172.065200	 0.137338	 14.823730	-45.276230	-0.872195	 6.310434	-14.905550	-40.259020	-45.823690	-38.608970	-2.027600	 6.559038	 9.033609	-5.188889	 0.308190	 3.541030	-5.234859	 0.342567	 0.430617	 1.900388	 23.254340	-6.509464	 4.279178	-21.375120	 0.955193	 92.475960	 62.003310	-173.499500	-14.558920	 25.467250	 25.081960	-6.075969	 9.683847	 56.098260	 30.377240	-45.289010	 33.248230	 1.803333	 3.979147	-15.098590	 4.898592	 3.004813	-9.310344	 5.224449	 0.395017	 2.014677
-0.018155	 0.166769	 1.263394	 3.638220	 24.727160	 0.353444	 1.946876	-41.679760	 177.930800	 3.840359	-23.072080	 1.670837	 6.690172	 65.378050	-10.252140	-2.385833	 28.452750	 0.000004	-5.017559	-40.938870	 178.870900	-2.320805	-22.756220	 1.093675	-2.854976	 66.020940	 12.470250	 2.384659	 28.388700	-0.000001	-34.884190	 11.479240	 1.063265	-2.269969	 1.024891	 1.449355	 5.464186	 10.711090	-2.490795	-94.512020	 69.989810	 170.051700	-0.702280	 15.309790	-48.174430	-3.198360	 7.751389	-16.227000	-39.391080	-42.144270	-37.033570	-2.027600	 6.559038	 9.033609	-5.188889	 0.308190	 3.541030	-5.234859	 0.342567	 0.430617	 1.172241	 21.717420	-5.990520	 4.234360	-21.635560	 0.790275	 93.026500	 63.965610	-171.527000	-14.971380	 27.453540	 30.611790	-4.574221	 12.980500	 57.838230	 32.313190	-40.909720	 33.030600	 1.803333	 3.979147	-15.098590	 4.898592	 3.004813	-9.310344	 5.224449	 0.395017	 2.014677
-0.020995	 0.183202	 1.255367	 3.364886	 26.580930	-0.345191	 2.756936	-45.517900	 178.970800	 4.223415	-24.615500	 1.936165	 7.231792	 64.745210	-11.351520	-2.385833	 28.452750	 0.000004	-3.883833	-45.537530	 179.718000	-3.573401	-25.346250	 0.673466	-2.108694	 65.477420	 13.298210	 2.384659	 28.388700	-0.000001	-33.855770	 12.195140	 0.777260	-1.725208	 3.456535	 2.562480	 5.221035	 10.200100	-3.031654	-94.944370	 69.945070	 168.532400	-2.270367	 13.868510	-49.958660	-5.126656	 8.796484	-17.067000	-37.620610	-38.209340	-34.132370	-2.027600	 6.559038	 9.033609	-5.188889	 0.308190	 3.541030	-5.234859	 0.342567	 0.430617	 0.271453	 22.366060	-4.476519	 4.028204	-23.575200	-0.121466	 93.464450	 65.041080	-169.893600	-14.679510	 27.376880	 34.530060	-3.031470	 15.391850	 57.678420	 32.169650	-36.037630	 30.988980	 1.803333	 3.979147	-15.098590	 4.898592	 3.004813	-9.310344	 5.224449	 0.395017	 2.014677
-0.024559	 0.195780	 1.245258	 3.621614	 28.817600	-2.148286	 4.150422	-48.821160	-178.623600	 4.963124	-25.018580	 2.280632	 7.371066	 64.129820	-12.532770	-2.385833	 28.452750	 0.000004	-2.064864	-50.220230	-177.981000	-5.750760	-28.092210	-0.284657	-1.002402	 65.327050	 14.454440	 2.384659	 28.388700	-0.000001	-31.588450	 12.818820	 0.990865	-1.402094	 5.949468	 2.632713	 4.656876	 9.583474	-2.184255	-95.508770	 69.573950	 166.911800	-3.896769	 11.814580	-51.464760	-6.990578	 9.777121	-17.777550	-34.788330	-32.662490	-29.317970	-2.027600	 6.559038	 9.033609	-5.188889	 0.308190	 3.541030	-5.234859	 0.342567	 0.430617	 0.039304	 24.853140	-4.677963	 4.312034	-27.250220	-0.249198	 94.667040	 63.460970	-167.540800	-13.057680	 24.363660	 35.598160	-1.319269	 17.555490	 56.882020	 29.804810	-28.667570	 26.904090	 1.803333	 3.979147	-15.098590	 4.898592	 3.004813	-9.310344	 5.224449	 0.395017	 2.014677
-0.028636	 0.206250	 1.229375	 3.684675	 31.236540	-3.955201	 6.299661	-53.684540	-175.840900	 5.408058	-28.447650	 2.781987	 8.271932	 64.728670	-14.178550	-2.385833	 28.452750	 0.000004	 1.036059	-56.124570	-174.861000	-7.488906	-32.938410	-1.274276	-0.420173	 66.309750	 15.589780	 2.384659	 28.388700	-0.000001	-28.159370	 13.331710	 1.360346	-1.343696	 8.046889	 2.969157	 4.232677	 8.884179	-1.140337	-96.037340	 69.302440	 165.391500	-5.449096	 9.305555	-52.524470	-8.222550	 10.403820	-18.197810	-31.526190	-26.258510	-24.151540	-2.027600	 6.559038	 9.033609	-5.188889	 0.308190	 3.541030	-5.234859	 0.342567	 0.430617	 0.360933	 27.317110	-5.520142	 4.772192	-30.769690	 0.255196	 95.973760	 61.232850	-165.518400	-11.795190	 20.335110	 37.916930	 1.019198	 19.226330	 54.821970	 27.158480	-20.695610	 22.785900	 1.803333	 3.979147	-15.098590	 4.898592	 3.004813	-9.310344	 5.224449	 0.395017	 2.014677
-0.033696	 0.213837	 1.208775	 3.562689	 33.057220	-4.917288	 8.006144	-59.223580	-174.160400	 5.598905	-34.527170	 3.418058	 10.151340	 66.883750	-16.413810	-2.385833	 28.452750	 0.000004	 4.182092	-61.865350	-172.281800	-8.533957	-38.911660	-2.129373	-0.871786	 67.769250	 17.037430	 2.384659	 28.388700	-0.000001	-23.929770	 13.906900	 1.682816	-1.515659	 10.113890	 3.485507	 3.980997	 8.265028	-0.661458	-96.296810	 69.587630	 164.160700	-7.048892	 7.228221	-53.343030	-8.524419	 10.616500	-18.334770	-28.227950	-19.981720	-19.461340	-2.027600	 6.559038	 9.033609	-5.188889	 0.308190	 3.541030	-5.234859	 0.342567	 0.430617	 0.705552	 28.756890	-5.882852	 4.994353	-33.161560	 0.544336	 96.931190	 59.622910	-164.148900	-10.855430	 16.674390	 42.338160	 3.322686	 19.687150	 51.387070	 24.487400	-13.958440	 19.117580	 1.803333	 3.979147	-15.098590	 4.898592	 3.004813	-9.310344	 5.224449	 0.395017	 2.014677
